<svg width="32" height="26" fill="none" xmlns="http://www.w3.org/2000/svg"><path d="M4.59 15.602v-.714c0-7.102 5.117-12.86 11.43-12.86s11.43 5.758 11.43 12.86v.714" stroke="#686868" stroke-width="2.143" stroke-linecap="round" stroke-linejoin="round"/><path d="M1.734 21.227v-2.682c0-1.311.893-2.454 2.165-2.772l.693-.173 1.792-.448a.857.857 0 0 1 1.066.831v7.806a.857.857 0 0 1-1.066.832L3.9 23.999a2.858 2.858 0 0 1-2.165-2.772ZM30.313 21.227v-2.682a2.858 2.858 0 0 0-2.165-2.772l-.693-.173-1.792-.448a.857.857 0 0 0-1.065.831v7.806c0 .557.524.967 1.065.832l2.485-.622a2.858 2.858 0 0 0 2.165-2.772Z" stroke="#686868" stroke-width="2.143" stroke-linecap="round" stroke-linejoin="round"/></svg>