<svg width="33" height="27" fill="none" xmlns="http://www.w3.org/2000/svg"><path d="M4.905 15.802v-.726C4.905 7.854 10.109 2 16.528 2c6.42 0 11.623 5.854 11.623 13.076v.726" stroke="#686868" stroke-width="2.179" stroke-linecap="round" stroke-linejoin="round"/><path d="M2 21.522v-2.727c0-1.334.907-2.496 2.201-2.82l.705-.176 1.822-.455a.872.872 0 0 1 1.084.845v7.938a.872.872 0 0 1-1.084.846l-2.527-.632A2.906 2.906 0 0 1 2 21.52ZM31.06 21.522v-2.727a2.906 2.906 0 0 0-2.202-2.82l-.705-.176-1.822-.455a.872.872 0 0 0-1.083.845v7.938c0 .567.532.983 1.083.846l2.527-.632a2.906 2.906 0 0 0 2.201-2.82Z" stroke="#686868" stroke-width="2.179" stroke-linecap="round" stroke-linejoin="round"/></svg>