<svg width="27" height="22" fill="none" xmlns="http://www.w3.org/2000/svg"><path d="M3.499 12.874v-.625C3.499 6.037 7.976 1 13.499 1c5.522 0 10 5.037 10 11.25v.624" stroke="#fff" stroke-width="1.875" stroke-linecap="round" stroke-linejoin="round"/><path d="M1 17.795v-2.346a2.5 2.5 0 0 1 1.894-2.426l.606-.151 1.568-.392a.75.75 0 0 1 .932.727v6.829a.75.75 0 0 1-.932.727l-2.174-.543A2.5 2.5 0 0 1 1 17.795ZM26 17.795v-2.346a2.5 2.5 0 0 0-1.894-2.426l-.606-.151-1.568-.392a.75.75 0 0 0-.932.727v6.829a.75.75 0 0 0 .932.727l2.174-.543A2.5 2.5 0 0 0 26 17.795Z" stroke="#fff" stroke-width="1.875" stroke-linecap="round" stroke-linejoin="round"/></svg>