<svg width="30" height="30" fill="none" xmlns="http://www.w3.org/2000/svg"><path d="m20.31 11.179-.18.3.341.073a2.253 2.253 0 0 1 1.779 2.198V17.107l.362-.18 4.638-2.32v7.941l-4.638-2.32-.362-.18v3.702c0 1.24-1.01 2.25-2.25 2.25H5c-1.24 0-2.25-1.01-2.25-2.25v-10a2.242 2.242 0 0 1 .919-1.803l.205-.15-.153-.203A4.705 4.705 0 0 1 2.75 8.75C2.75 6.13 4.88 4 7.5 4c1.798 0 3.347 1.016 4.155 2.5l.22.403.22-.403C12.903 5.016 14.45 4 16.25 4 18.87 4 21 6.13 21 8.75a4.71 4.71 0 0 1-.69 2.429ZM4.75 23.75V24h15.503v-.25l-.003-10v-.25H4.75v10.25ZM19 8.75A2.753 2.753 0 0 0 16.25 6a2.753 2.753 0 0 0-2.75 2.75 2.753 2.753 0 0 0 2.75 2.75A2.753 2.753 0 0 0 19 8.75Zm-8.75 0A2.753 2.753 0 0 0 7.5 6a2.753 2.753 0 0 0-2.75 2.75A2.753 2.753 0 0 0 7.5 11.5a2.753 2.753 0 0 0 2.75-2.75Z" fill="#686868" stroke="#101010" stroke-width=".5"/></svg>