<svg width="30" height="30" fill="none" xmlns="http://www.w3.org/2000/svg"><path d="M15.78 2.968h.001l11.25 11.25a1.1 1.1 0 0 1 .319.781 1.1 1.1 0 0 1-1.1 1.1h-1.4V25a2.35 2.35 0 0 1-2.35 2.35h-15A2.35 2.35 0 0 1 5.15 25v-8.9h-1.4a1.1 1.1 0 0 1-.423-.08l-.057.138.057-.139a1.1 1.1 0 0 1-.359-.237l-.106.106.106-.106a1.1 1.1 0 0 1-.24-.358l-.139.057.138-.057a1.1 1.1 0 0 1 0-.846l-.138-.058.138.058a1.1 1.1 0 0 1 .241-.358l11.25-11.25v-.001a1.1 1.1 0 0 1 .359-.24l-.058-.139.058.138a1.1 1.1 0 0 1 .846 0l.057-.138-.057.138a1.1 1.1 0 0 1 .358.241Zm11.354 12.916A1.25 1.25 0 0 0 27.5 15L4.85 16.25H5V25a2.5 2.5 0 0 0 2.5 2.5h15A2.5 2.5 0 0 0 25 25v-8.75h1.25c.331 0 .65-.132.884-.366ZM7.35 25v.15h15.3v-12.2l-.044-.044-7.5-7.5L15 5.3l-.106.106-7.5 7.5-.044.044V25Z" fill="#fff" stroke="#101010" stroke-width=".3"/></svg>