<svg width="46" height="39" fill="none" xmlns="http://www.w3.org/2000/svg"><mask id="mask0_251_79" style="mask-type:luminance" maskUnits="userSpaceOnUse" x="0" y="0" width="46" height="39"><path d="M45.385.945H.21v37.22h45.174V.945Z" fill="#fff"/></mask><g mask="url('#mask0_251_79')"><path d="M1.654 22.905a10.32 10.32 0 0 1-.972-2.96c-.79-4.366 1.01-10.364 3.971-13.706L6 5.053c.24-.208.494-.4.758-.576a19.666 19.666 0 0 1 12.236-3.09 35.892 35.892 0 0 1 13.04 3.582c1.293.54 2.49 1.289 3.542 2.215.08.067.167.126.26.175l3.303 2.125.13.09c3.096 2.345 4.987 6.109 5.635 9.97a20.022 20.022 0 0 1-2.857 14.14 1.81 1.81 0 0 1-.369.401l-3.498 2.747a4.91 4.91 0 0 1-5.182.466 2.962 2.962 0 0 1-1.697-2.157 5.98 5.98 0 0 1 .201-1.807 4.488 4.488 0 0 0-.155-2.5 2.59 2.59 0 0 0-1.82-1.626 3.57 3.57 0 0 0-2.456.648c-1.217.731-2.286 1.696-3.497 2.435a13.688 13.688 0 0 1-10.183 1.373c-3.303-.77-5.83-2.59-8.42-4.767a1.561 1.561 0 0 1-.428-.577L2.56 25.405l-.907-2.5Z" fill="#D1CFCF" fill-opacity=".74"/><path opacity=".4" d="M42.047 33.688c-.098.155-.223.29-.369.402l-3.497 2.746a4.903 4.903 0 0 1-5.182.467 2.988 2.988 0 0 1-1.698-2.15 6.001 6.001 0 0 1 .227-1.789 4.496 4.496 0 0 0-.155-2.5 2.592 2.592 0 0 0-1.814-1.62 3.609 3.609 0 0 0-2.462.648c-1.224.739-2.28 1.704-3.497 2.449a13.778 13.778 0 0 1-10.183 1.373c-3.297-.784-5.83-2.591-8.42-4.774-.184-.16-.33-.36-.428-.583L2.885 25.85a37.234 37.234 0 0 1 8.757-3.355c4.23-.952 8.83-.81 12.696 1.16 1.23.647 2.358 1.412 3.556 2.092a18.688 18.688 0 0 0 11.18 2.403 15.926 15.926 0 0 0 5.83-1.853 19.433 19.433 0 0 1-2.857 7.391Z" fill="#C9D2DF"/><path opacity=".1" d="M44.73 26.364a15.99 15.99 0 0 1-5.83 1.846c-3.877.39-7.78-.44-11.16-2.377-1.193-.68-2.326-1.477-3.557-2.092-3.886-1.944-8.466-2.112-12.696-1.16a36.926 36.926 0 0 0-8.757 3.355l1.703 2.5c.1.22.246.417.428.577a25.862 25.862 0 0 0 5.065 3.556 25.442 25.442 0 0 1-5.078-3.556 1.696 1.696 0 0 1-.428-.576l-1.982-2.922-.933-2.545c-.47-.926-.8-1.918-.978-2.941a26.661 26.661 0 0 1 15.546-6.983 38.04 38.04 0 0 1 6.076 0c8.064.564 16.323 2.824 22.717 7.598.225 1.904.179 3.83-.136 5.72Z" fill="#C9D2DF"/><path d="M10.445 33.048a.344.344 0 0 1-.155-.038C3.857 29.693 1.505 24.95.696 21.564a15.83 15.83 0 0 1-.252-6.652.33.33 0 0 1 .408-.26.344.344 0 0 1 .259.408c0 .11-2.345 11.232 9.496 17.34a.343.343 0 0 1-.162.648ZM1.643 11.873h-.097a.344.344 0 0 1-.227-.428c.033-.136 3.375-10.5 16.136-10.5h.486a.343.343 0 0 1 .23.589.336.336 0 0 1-.243.091h-.486C5.212 1.632 2.097 11.22 1.974 11.633a.35.35 0 0 1-.33.24ZM43.17 14.944a.344.344 0 0 1-.291-.162C36.576 4.275 22.235 2.06 22.086 2.04a.344.344 0 0 1-.247-.515.337.337 0 0 1 .344-.16c.15 0 14.814 2.274 21.285 13.06a.357.357 0 0 1-.123.472.323.323 0 0 1-.175.046ZM36.142 37.963a.345.345 0 0 1-.22-.604.337.337 0 0 1 .116-.063c5.292-1.678 7.346-6.05 8.136-9.425.717-3.12.73-6.362.039-9.49a.343.343 0 0 1 .647-.187c.739 2.59 2.216 16.323-8.628 19.75a.293.293 0 0 1-.09.02ZM34.633 38.164a3.59 3.59 0 0 1-3.413-2.494.358.358 0 0 1 .015-.277.363.363 0 0 1 .671.038 2.856 2.856 0 0 0 2.773 2.008.363.363 0 1 1 0 .725h-.046ZM12.303 33.805a.395.395 0 1 0 0-.789.395.395 0 0 0 0 .79ZM1.244 13.606a.395.395 0 1 0 0-.79.395.395 0 0 0 0 .79ZM44.217 17.138a.395.395 0 1 0 0-.789.395.395 0 0 0 0 .79ZM19.914 1.922a.395.395 0 1 0 0-.79.395.395 0 0 0 0 .79Z" fill="#6A7979"/><path d="M20.713 6.044a2.449 2.449 0 0 1 4.289 1.503c.008.238-.02.477-.085.706a2.779 2.779 0 0 1-3.29 2.112 2.448 2.448 0 0 1-1.51-1.334 2.766 2.766 0 0 1 .596-2.987Z" fill="#4DF58C"/><path d="M13.288 5.434a2.448 2.448 0 0 1 4.288 1.497c.008.24-.02.48-.085.712a2.778 2.778 0 0 1-3.29 2.105 2.416 2.416 0 0 1-1.503-1.334 2.74 2.74 0 0 1 .59-2.98Z" fill="#42CAF8"/><path d="M27.318 8.428a2.45 2.45 0 0 1 4.288 1.503c.014.247-.014.494-.084.732a2.772 2.772 0 0 1-3.284 2.111 2.415 2.415 0 0 1-1.51-1.334 2.765 2.765 0 0 1 .59-2.986v-.026Z" fill="#FF7769"/><path d="M5.639 11.627c2.027-2.468 5.318-1.367 5.266 1.943a4.066 4.066 0 0 1-.15 1.05c-.647 2.325-2.59 3.822-4.268 3.33a2.785 2.785 0 0 1-1.794-1.86 4.813 4.813 0 0 1 .946-4.43v-.033Z" fill="#FFE56B"/><path d="M27.473 8.614a.395.395 0 1 0 0-.79.395.395 0 0 0 0 .79Z" fill="#6A7979"/><path d="M29.049 13.299a2.843 2.843 0 0 1-.771-.11 2.809 2.809 0 0 1-1.723-1.451 3.135 3.135 0 0 1-.207-2.313.336.336 0 0 1 .647.182 2.488 2.488 0 0 0 .162 1.833 2.123 2.123 0 0 0 3.032.88 2.552 2.552 0 0 0 .952-3.303 2.119 2.119 0 0 0-1.295-1.107.337.337 0 1 1 .187-.648 2.804 2.804 0 0 1 1.684 1.457 3.239 3.239 0 0 1-1.204 4.165c-.442.268-.948.411-1.464.415ZM15.057 10.428a2.59 2.59 0 0 1-.764-.11 2.991 2.991 0 0 1-1.944-3.764 3.09 3.09 0 0 1 2.5-2.228.33.33 0 0 1 .091.648 2.43 2.43 0 0 0-1.943 1.762 2.332 2.332 0 0 0 1.464 2.947 2.332 2.332 0 0 0 2.824-1.697 2.461 2.461 0 0 0-.538-2.37.332.332 0 0 1-.075-.37.33.33 0 0 1 .555-.084 3.114 3.114 0 0 1 .693 3.005 3.057 3.057 0 0 1-2.863 2.26ZM22.35 10.96a2.593 2.593 0 0 1-.764-.11 2.78 2.78 0 0 1-1.73-1.444 3.148 3.148 0 0 1-.214-2.319.33.33 0 0 1 .408-.22.324.324 0 0 1 .227.408 2.487 2.487 0 0 0 .162 1.833 2.13 2.13 0 0 0 3.038.907 2.545 2.545 0 0 0 .952-3.297 2.105 2.105 0 0 0-2.707-1.037.346.346 0 1 1-.247-.647 2.772 2.772 0 0 1 3.544 1.353 3.238 3.238 0 0 1-1.205 4.165 2.844 2.844 0 0 1-1.464.409Z" fill="#6A7979"/><path d="M41.25 29.097c.73-2.522-.231-5.017-2.149-5.572-1.917-.555-4.064 1.04-4.794 3.561-.73 2.523.232 5.017 2.15 5.572 1.917.556 4.063-1.039 4.793-3.56Z" fill="#D1CFCF" fill-opacity=".74"/><path d="M37.18 33.372c-.3.002-.6-.04-.888-.123-2.111-.615-3.187-3.31-2.403-6.024.784-2.714 3.135-4.418 5.247-3.802 2.111.615 3.18 3.31 2.396 6.024a5.907 5.907 0 0 1-2.085 3.122 3.796 3.796 0 0 1-2.268.803Zm1.068-9.353c-1.522 0-3.07 1.392-3.66 3.413-.647 2.319.182 4.619 1.905 5.117a2.87 2.87 0 0 0 2.52-.57 5.18 5.18 0 0 0 1.82-2.74c.648-2.325-.182-4.625-1.898-5.123a2.48 2.48 0 0 0-.687-.097Z" fill="#6A7979"/><path opacity=".4" d="M21.017 23.065c.321-1.11-.722-2.387-2.33-2.853-1.608-.465-3.173.057-3.494 1.167-.321 1.11.722 2.387 2.33 2.853 1.608.465 3.172-.057 3.494-1.167ZM24.204 24.677a.946.946 0 1 0 0-1.891.946.946 0 0 0 0 1.891Z" fill="#C9D2DF"/><path opacity=".2" d="M22.383 21.77a.615.615 0 1 0 0-1.23.615.615 0 0 0 0 1.23Z" fill="#C9D2DF"/><path opacity=".4" d="M9.746 25.58a1.762 1.762 0 1 0 0-3.524 1.762 1.762 0 0 0 0 3.523Z" fill="#C9D2DF"/><path opacity=".2" d="M13.664 21.044a.577.577 0 1 0 0-1.153.577.577 0 0 0 0 1.153Z" fill="#C9D2DF"/><path d="M14.294 6.466c.233-.195.313-.484.178-.646-.135-.162-.434-.136-.667.06-.234.194-.314.483-.179.645.136.162.434.136.668-.059ZM15.109 6.173a.162.162 0 1 0 0-.324.162.162 0 0 0 0 .324ZM21.575 6.752c.234-.195.314-.484.178-.646-.135-.162-.434-.136-.667.059-.234.194-.314.484-.178.646.135.162.434.136.667-.06ZM22.388 6.46a.162.162 0 1 0 0-.324.162.162 0 0 0 0 .323ZM28.876 8.832c.233-.195.313-.484.178-.646-.135-.162-.434-.136-.667.059-.234.195-.314.484-.179.646.136.162.434.136.668-.06ZM29.695 8.536a.162.162 0 1 0 0-.323.162.162 0 0 0 0 .323Z" fill="#D1CFCF" fill-opacity=".74"/><path d="M34.154 13.144a2.45 2.45 0 0 1 4.275 1.496c.008.24-.02.48-.084.712a2.772 2.772 0 0 1-3.284 2.106 2.419 2.419 0 0 1-1.51-1.335 2.753 2.753 0 0 1 .59-2.98h.013Z" fill="#F78A11"/><path d="M34.307 13.327a.395.395 0 1 0 0-.789.395.395 0 0 0 0 .79Z" fill="#6A7979"/><path d="M35.882 18.007a2.839 2.839 0 0 1-.77-.11 3 3 0 0 1-1.944-3.763.339.339 0 0 1 .284-.244.336.336 0 0 1 .364.425 2.338 2.338 0 0 0 1.483 2.947 2.129 2.129 0 0 0 1.71-.233 2.5 2.5 0 0 0 1.114-1.464 2.339 2.339 0 0 0-1.483-2.96.337.337 0 0 1 .188-.648 2.999 2.999 0 0 1 1.943 3.764 3.168 3.168 0 0 1-1.412 1.852 2.858 2.858 0 0 1-1.477.434Z" fill="#6A7979"/><path d="M35.714 13.55c.233-.194.313-.483.178-.646-.135-.162-.434-.135-.668.06-.233.194-.313.484-.178.646.135.162.434.135.668-.06ZM36.53 13.252a.162.162 0 1 0 0-.323.162.162 0 0 0 0 .323ZM7.454 11.716c.234-.195.313-.484.178-.646-.135-.162-.434-.136-.667.059-.234.194-.314.484-.178.646.135.162.434.135.667-.06ZM8.27 11.426a.162.162 0 1 0 0-.323.162.162 0 0 0 0 .323Z" fill="#D1CFCF" fill-opacity=".74"/><path d="M10.807 14.86c-.648 2.326-2.591 3.822-4.275 3.336a2.546 2.546 0 0 1-1.438-1.14.983.983 0 0 1 .097-.181 5.234 5.234 0 0 1 1.943-2.183c.991-.512 2.164-.44 3.239-.538.168 0 .33-.032.505-.058.005.256-.019.513-.071.764Z" fill="#FFB320"/><path d="M7.375 18.569a2.85 2.85 0 0 1-.77-.136c-1.84-.538-2.786-2.87-2.112-5.182a5.415 5.415 0 0 1 1.23-2.183.317.317 0 0 1 .46.434 4.696 4.696 0 0 0-1.082 1.943c-.582 2.008.169 3.997 1.678 4.43 1.51.434 3.2-.841 3.783-2.85a4.45 4.45 0 0 0-.071-2.837 2.526 2.526 0 0 0-1.607-1.593.314.314 0 1 1 .175-.603 3.11 3.11 0 0 1 2.015 1.944c.389 1.04.42 2.179.09 3.238-.59 2.021-2.183 3.388-3.789 3.395Z" fill="#6A7979"/><path d="M29.313 29.172c.006.08.006.16 0 .24a2.251 2.251 0 0 0-.751-.065h-.24c-.374.032-.74.128-1.082.285a2.53 2.53 0 0 0-.272.123 6.44 6.44 0 0 0-1.218.752c-.75.518-1.47 1.1-2.221 1.613l-.072.045a14.459 14.459 0 0 1-4.573 1.755c0-.265-.045-.524-.064-.79-.13-2.19.887-4.534 2.863-5.519.858-.325 1.742-.579 2.643-.758a16.53 16.53 0 0 1 2.118-.57 3.162 3.162 0 0 1 1.295.065c.214.117.434.22.648.324l.071.052a2.863 2.863 0 0 1 .855 2.448Z" fill="#FF9E3E"/><path d="M16.619 34.42c-.684.01-1.367-.047-2.04-.169a.344.344 0 0 1 .135-.647 14.198 14.198 0 0 0 11.09-3.24 7.081 7.081 0 0 1 1.891-1.178c.583-.227 2.04-.648 3.096.142.894.694 1.218 2.08.966 4.127a.356.356 0 0 1-.383.298.343.343 0 0 1-.297-.383c.22-1.761 0-2.973-.707-3.504-.706-.531-1.943-.227-2.422-.045a6.415 6.415 0 0 0-1.704 1.069 14.897 14.897 0 0 1-9.625 3.53Z" fill="#6A7979"/><path d="M21.69 29.428a1.438 1.438 0 1 0 0-2.876 1.438 1.438 0 0 0 0 2.876ZM27.352 26.836a.72.72 0 1 0 0-1.438.72.72 0 0 0 0 1.438ZM18.987 32.697a.745.745 0 1 0 0-1.49.745.745 0 0 0 0 1.49ZM17.04 29.768a.46.46 0 1 0 0-.92.46.46 0 0 0 0 .92ZM18.76 27.87a.401.401 0 1 0 0-.802.401.401 0 0 0 0 .803Z" fill="#FF9E3E"/><path d="M30.615 24.225h-.071a.195.195 0 0 1-.11-.246l1.03-2.449a.2.2 0 0 1 .252-.097.18.18 0 0 1 .097.246l-1.03 2.442a.194.194 0 0 1-.168.104ZM31.99 23.047a.13.13 0 0 1-.071 0 .185.185 0 0 1-.104-.101.19.19 0 0 1 0-.145l.557-1.296a.187.187 0 0 1 .337.014c.019.042.021.09.006.136l-.55 1.295a.2.2 0 0 1-.175.097Z" fill="#6A7979"/></g></svg>