<svg width="41" height="35" fill="none" xmlns="http://www.w3.org/2000/svg"><mask id="mask0_154_23" style="mask-type:luminance" maskUnits="userSpaceOnUse" x="0" y="0" width="41" height="35"><path d="M40.19.962H.039v33.083h40.153V.962Z" fill="#fff"/></mask><g mask="url('#mask0_154_23')"><path d="M1.322 20.481A9.172 9.172 0 0 1 .46 17.85c-.703-3.88.898-9.212 3.53-12.183l1.197-1.053c.213-.185.438-.356.673-.513a17.48 17.48 0 0 1 10.876-2.746 31.903 31.903 0 0 1 11.59 3.184c1.15.48 2.214 1.145 3.15 1.969.07.06.148.111.23.155l2.936 1.889.115.08c2.752 2.085 4.434 5.43 5.01 8.861.744 4.36-.161 8.84-2.54 12.569a1.61 1.61 0 0 1-.328.357L33.79 32.86a4.366 4.366 0 0 1-4.606.415 2.633 2.633 0 0 1-1.509-1.918 5.314 5.314 0 0 1 .179-1.606 3.99 3.99 0 0 0-.138-2.223 2.304 2.304 0 0 0-1.618-1.445 3.173 3.173 0 0 0-2.182.576c-1.083.65-2.033 1.509-3.11 2.165a12.166 12.166 0 0 1-9.05 1.22c-2.936-.685-5.182-2.303-7.485-4.237a1.388 1.388 0 0 1-.38-.512l-1.762-2.591-.806-2.223Z" fill="#D1CFCF" fill-opacity=".74"/><path opacity=".4" d="M37.226 30.066a1.376 1.376 0 0 1-.328.357l-3.11 2.441a4.358 4.358 0 0 1-4.605.415 2.655 2.655 0 0 1-1.509-1.912 5.334 5.334 0 0 1 .202-1.589 3.996 3.996 0 0 0-.138-2.222 2.304 2.304 0 0 0-1.613-1.44 3.207 3.207 0 0 0-2.187.576c-1.088.657-2.027 1.514-3.11 2.177a12.246 12.246 0 0 1-9.05 1.22c-2.93-.697-5.182-2.303-7.485-4.243a1.472 1.472 0 0 1-.38-.518l-1.497-2.229a33.093 33.093 0 0 1 7.784-2.982c3.76-.846 7.848-.72 11.285 1.03 1.094.577 2.096 1.256 3.16 1.86a16.61 16.61 0 0 0 9.938 2.136 14.153 14.153 0 0 0 5.182-1.646 17.273 17.273 0 0 1-2.539 6.57Z" fill="#C9D2DF"/><path opacity=".1" d="M39.61 23.556a14.21 14.21 0 0 1-5.182 1.64 16.61 16.61 0 0 1-9.92-2.112c-1.06-.605-2.067-1.313-3.16-1.86-3.455-1.727-7.526-1.877-11.285-1.03a32.824 32.824 0 0 0-7.785 2.982l1.515 2.222c.089.196.218.37.38.512a22.984 22.984 0 0 0 4.502 3.161 22.609 22.609 0 0 1-4.514-3.16 1.507 1.507 0 0 1-.38-.513L2.02 22.802l-.829-2.263a9.265 9.265 0 0 1-.87-2.614 23.698 23.698 0 0 1 13.819-6.207 33.834 33.834 0 0 1 5.4 0c7.168.501 14.51 2.51 20.192 6.754.2 1.692.16 3.403-.12 5.084Z" fill="#C9D2DF"/><path d="M9.135 29.498a.304.304 0 0 1-.138-.035C3.28 26.515 1.19 22.301.47 19.29a14.072 14.072 0 0 1-.224-5.913.293.293 0 0 1 .362-.23.305.305 0 0 1 .23.362c0 .098-2.084 9.984 8.441 15.413a.304.304 0 0 1-.144.576ZM1.31 10.675h-.086a.305.305 0 0 1-.201-.38c.028-.12 3-9.333 14.341-9.333h.432a.305.305 0 0 1 .274.427.299.299 0 0 1-.285.178h-.432c-10.87.006-13.64 8.527-13.749 8.895a.31.31 0 0 1-.294.213ZM38.222 13.405a.306.306 0 0 1-.259-.144C32.361 3.922 19.613 1.953 19.481 1.936a.305.305 0 0 1-.22-.457.3.3 0 0 1 .307-.142c.132 0 13.167 2.02 18.919 11.607a.316.316 0 0 1-.11.42.288.288 0 0 1-.155.04ZM31.975 33.866a.306.306 0 0 1-.196-.536.3.3 0 0 1 .104-.057c4.704-1.491 6.529-5.378 7.231-8.377.637-2.774.65-5.655.035-8.435a.306.306 0 0 1 .575-.167c.657 2.303 1.97 14.51-7.669 17.555a.261.261 0 0 1-.08.017ZM30.634 34.045a3.19 3.19 0 0 1-3.034-2.217.319.319 0 0 1 .014-.247.325.325 0 0 1 .431-.15.327.327 0 0 1 .165.184 2.54 2.54 0 0 0 2.464 1.785.322.322 0 0 1 0 .645h-.04ZM10.788 30.171a.351.351 0 1 0 0-.702.351.351 0 0 0 0 .702ZM.96 12.217a.351.351 0 1 0 0-.702.351.351 0 0 0 0 .702ZM39.155 15.357a.351.351 0 1 0 0-.703.351.351 0 0 0 0 .703ZM17.553 1.831a.351.351 0 1 0 0-.702.351.351 0 0 0 0 .702Z" fill="#6A7979"/><path d="M18.26 5.495a2.176 2.176 0 0 1 3.812 1.335c.007.212-.018.424-.075.628a2.47 2.47 0 0 1-2.924 1.877 2.176 2.176 0 0 1-1.342-1.186 2.459 2.459 0 0 1 .53-2.654Z" fill="#4DF58C"/><path d="M11.663 4.952a2.176 2.176 0 0 1 3.811 1.33 2.1 2.1 0 0 1-.075.634 2.47 2.47 0 0 1-2.924 1.87 2.148 2.148 0 0 1-1.336-1.185 2.435 2.435 0 0 1 .524-2.649Z" fill="#42CAF8"/><path d="M24.133 7.613a2.176 2.176 0 0 1 3.812 1.336c.012.22-.013.44-.075.65a2.464 2.464 0 0 1-2.92 1.877 2.146 2.146 0 0 1-1.34-1.186 2.457 2.457 0 0 1 .523-2.654v-.023Z" fill="#FF7769"/><path d="M4.863 10.457c1.802-2.194 4.727-1.215 4.68 1.727a3.616 3.616 0 0 1-.132.933c-.576 2.067-2.303 3.397-3.794 2.96a2.476 2.476 0 0 1-1.595-1.653 4.278 4.278 0 0 1 .84-3.938v-.029Z" fill="#FFE56B"/><path d="M24.272 7.78a.351.351 0 1 0 0-.703.351.351 0 0 0 0 .703Z" fill="#6A7979"/><path d="M25.67 11.943a2.528 2.528 0 0 1-.685-.098 2.498 2.498 0 0 1-1.531-1.29A2.786 2.786 0 0 1 23.27 8.5a.299.299 0 1 1 .575.162 2.211 2.211 0 0 0 .144 1.629 1.89 1.89 0 0 0 2.695.783 2.268 2.268 0 0 0 .846-2.936 1.883 1.883 0 0 0-1.151-.985.3.3 0 0 1 .167-.576 2.491 2.491 0 0 1 1.497 1.296 2.879 2.879 0 0 1-1.071 3.702 2.544 2.544 0 0 1-1.302.368ZM13.235 9.391c-.23.002-.46-.031-.68-.098a2.66 2.66 0 0 1-1.727-3.345 2.746 2.746 0 0 1 2.223-1.98.294.294 0 0 1 .08.576 2.16 2.16 0 0 0-1.727 1.566 2.073 2.073 0 0 0 1.3 2.62 2.073 2.073 0 0 0 2.511-1.51 2.188 2.188 0 0 0-.478-2.106.295.295 0 0 1 .102-.489.294.294 0 0 1 .324.085 2.768 2.768 0 0 1 .616 2.672 2.717 2.717 0 0 1-2.544 2.01ZM19.718 9.864c-.23.002-.46-.031-.68-.098a2.471 2.471 0 0 1-1.537-1.284 2.798 2.798 0 0 1-.19-2.06.293.293 0 0 1 .363-.196.288.288 0 0 1 .201.362 2.21 2.21 0 0 0 .144 1.63 1.894 1.894 0 0 0 2.7.806 2.262 2.262 0 0 0 .847-2.93 1.871 1.871 0 0 0-2.407-.922.308.308 0 1 1-.218-.576A2.464 2.464 0 0 1 22.09 5.8a2.88 2.88 0 0 1-1.071 3.703 2.528 2.528 0 0 1-1.301.362Z" fill="#6A7979"/><path d="M36.517 25.985c.649-2.242-.206-4.46-1.91-4.953-1.705-.493-3.613.924-4.262 3.166-.65 2.242.206 4.46 1.91 4.953 1.705.493 3.613-.924 4.262-3.166Z" fill="#D1CFCF" fill-opacity=".74"/><path d="M32.897 29.785a2.777 2.777 0 0 1-.79-.11c-1.876-.546-2.832-2.942-2.135-5.354.696-2.412 2.786-3.927 4.663-3.38 1.877.547 2.827 2.942 2.13 5.355a5.25 5.25 0 0 1-1.853 2.775c-.577.45-1.284.7-2.015.714Zm.95-8.314c-1.353 0-2.73 1.238-3.253 3.034-.576 2.061.16 4.105 1.692 4.549a2.55 2.55 0 0 0 2.24-.507 4.605 4.605 0 0 0 1.618-2.435c.576-2.067-.161-4.111-1.687-4.555a2.203 2.203 0 0 0-.61-.086Z" fill="#6A7979"/><path opacity=".4" d="M18.534 20.624c.286-.987-.642-2.122-2.071-2.536-1.43-.414-2.82.05-3.106 1.037-.285.986.642 2.122 2.071 2.535 1.43.414 2.82-.05 3.106-1.036ZM21.364 22.057a.84.84 0 1 0 0-1.681.84.84 0 0 0 0 1.681Z" fill="#C9D2DF"/><path opacity=".2" d="M19.747 19.472a.547.547 0 1 0 0-1.094.547.547 0 0 0 0 1.094Z" fill="#C9D2DF"/><path opacity=".4" d="M8.513 22.859a1.566 1.566 0 1 0 0-3.132 1.566 1.566 0 0 0 0 3.132Z" fill="#C9D2DF"/><path opacity=".2" d="M11.997 18.828a.512.512 0 1 0 0-1.025.512.512 0 0 0 0 1.025Z" fill="#C9D2DF"/><path d="M12.556 5.87c.207-.173.278-.43.158-.574-.12-.145-.386-.121-.594.052-.207.173-.278.43-.158.574.12.144.386.121.594-.052ZM13.28 5.61a.144.144 0 1 0 0-.289.144.144 0 0 0 0 .288ZM19.03 6.123c.207-.173.278-.43.158-.574-.12-.144-.386-.12-.593.052-.208.174-.279.43-.159.575.12.144.386.12.594-.053ZM19.752 5.864a.144.144 0 1 0 0-.288.144.144 0 0 0 0 .288ZM25.518 7.972c.208-.173.279-.43.159-.574-.12-.144-.386-.12-.594.053-.207.173-.278.43-.158.574.12.144.386.12.593-.053ZM26.246 7.71a.144.144 0 1 0 0-.288.144.144 0 0 0 0 .288Z" fill="#D1CFCF" fill-opacity=".74"/><path d="M30.208 11.805a2.176 2.176 0 0 1 3.8 1.33 2.1 2.1 0 0 1-.075.634 2.464 2.464 0 0 1-2.919 1.87 2.148 2.148 0 0 1-1.341-1.185 2.446 2.446 0 0 1 .523-2.649h.012Z" fill="#F78A11"/><path d="M30.346 11.969a.351.351 0 1 0 0-.702.351.351 0 0 0 0 .702Z" fill="#6A7979"/><path d="M31.745 16.128a2.525 2.525 0 0 1-.685-.098 2.665 2.665 0 0 1-1.727-3.345.3.3 0 0 1 .368-.207.299.299 0 0 1 .207.368 2.077 2.077 0 0 0 1.319 2.62 1.893 1.893 0 0 0 1.52-.207c.483-.292.837-.758.99-1.301a2.078 2.078 0 0 0-1.318-2.632.3.3 0 0 1 .167-.575 2.666 2.666 0 0 1 1.727 3.345 2.816 2.816 0 0 1-1.255 1.646 2.54 2.54 0 0 1-1.313.386Z" fill="#6A7979"/><path d="M31.596 12.167c.208-.173.279-.43.158-.575-.12-.144-.386-.12-.593.053-.208.173-.279.43-.158.574.12.144.385.12.593-.052ZM32.321 11.902a.144.144 0 1 0 0-.288.144.144 0 0 0 0 .288ZM6.476 10.536c.207-.173.278-.43.158-.574-.12-.145-.386-.121-.593.052-.208.173-.279.43-.159.574.12.145.386.121.594-.052ZM7.2 10.279a.144.144 0 1 0 0-.288.144.144 0 0 0 0 .288Z" fill="#D1CFCF" fill-opacity=".74"/><path d="M9.458 13.33c-.576 2.068-2.303 3.398-3.8 2.966a2.263 2.263 0 0 1-1.279-1.013.871.871 0 0 1 .087-.162c.38-.797.979-1.47 1.727-1.94.88-.455 1.923-.391 2.879-.478.15 0 .293-.029.449-.052.004.228-.017.456-.063.68Z" fill="#FFB320"/><path d="M6.406 16.627a2.53 2.53 0 0 1-.685-.12c-1.635-.479-2.476-2.551-1.877-4.607a4.813 4.813 0 0 1 1.094-1.94.282.282 0 0 1 .409.386 4.174 4.174 0 0 0-.962 1.727c-.518 1.785.15 3.552 1.492 3.938 1.341.386 2.844-.748 3.362-2.533a3.955 3.955 0 0 0-.063-2.522A2.245 2.245 0 0 0 7.748 9.54a.279.279 0 1 1 .155-.536 2.764 2.764 0 0 1 1.79 1.728 4.44 4.44 0 0 1 .081 2.878c-.523 1.797-1.94 3.011-3.368 3.017Z" fill="#6A7979"/><path d="M25.907 26.052c.005.07.005.142 0 .213a2 2 0 0 0-.668-.058h-.213a2.878 2.878 0 0 0-.961.254 2.254 2.254 0 0 0-.242.11 5.723 5.723 0 0 0-1.083.667c-.667.46-1.307.979-1.974 1.434l-.064.04a12.85 12.85 0 0 1-4.065 1.56c0-.236-.04-.466-.057-.702-.115-1.946.789-4.03 2.545-4.906a14.69 14.69 0 0 1 2.349-.673c.616-.21 1.244-.38 1.882-.507a2.81 2.81 0 0 1 1.152.058c.19.103.386.195.576.288l.063.046a2.545 2.545 0 0 1 .76 2.176Z" fill="#FF9E3E"/><path d="M14.622 30.716a9.433 9.433 0 0 1-1.813-.15.305.305 0 0 1 .12-.575 12.62 12.62 0 0 0 9.857-2.879 6.294 6.294 0 0 1 1.682-1.048c.518-.201 1.813-.575 2.752.127.794.616 1.082 1.848.858 3.668a.316.316 0 0 1-.34.264.305.305 0 0 1-.265-.34c.196-1.565 0-2.642-.628-3.114-.627-.472-1.727-.202-2.153-.04a5.701 5.701 0 0 0-1.514.95 13.243 13.243 0 0 1-8.556 3.137Z" fill="#6A7979"/><path d="M19.13 26.28a1.278 1.278 0 1 0 0-2.557 1.278 1.278 0 0 0 0 2.556ZM24.163 23.976a.64.64 0 1 0 0-1.279.64.64 0 0 0 0 1.279ZM16.73 29.185a.662.662 0 1 0 0-1.324.662.662 0 0 0 0 1.324ZM14.996 26.582a.409.409 0 1 0 0-.817.409.409 0 0 0 0 .817ZM16.528 24.896a.357.357 0 1 0 0-.714.357.357 0 0 0 0 .714Z" fill="#FF9E3E"/><path d="M27.064 21.655h-.063a.173.173 0 0 1-.098-.219l.916-2.176a.179.179 0 0 1 .224-.087.161.161 0 0 1 .087.22l-.916 2.17a.171.171 0 0 1-.15.092ZM28.285 20.608a.115.115 0 0 1-.064 0 .169.169 0 0 1-.091-.09.166.166 0 0 1 0-.13l.494-1.15a.167.167 0 0 1 .306.132l-.49 1.151a.179.179 0 0 1-.155.087Z" fill="#6A7979"/></g></svg>