<svg width="90" height="89" fill="none" xmlns="http://www.w3.org/2000/svg"><mask id="mask0_154_80" style="mask-type:luminance" maskUnits="userSpaceOnUse" x="0" y="0" width="90" height="89"><path d="M89.307 17.944 17.675.841.768 71.664l71.631 17.101 16.908-70.822Z" fill="#fff"/></mask><g mask="url('#mask0_154_80')"><path d="m40.077 34.98-6.017-1.437.237-.991a1.175 1.175 0 0 1 1.416-.86l3.725.89c.63.15 1.024.783.876 1.406l-.237.992Z" fill="#C1A7A7"/><path d="m40.077 34.98-6.017-1.437.237-.991a1.175 1.175 0 0 1 1.416-.86l3.725.89c.63.15 1.024.783.876 1.406l-.237.992Z" stroke="#493B3B" stroke-width=".593" stroke-miterlimit="10" stroke-linecap="round" stroke-linejoin="round"/><path d="M40.191 33.008 39.74 34.9M39.547 32.854l-.452 1.89M38.903 32.7l-.451 1.891M38.258 32.548l-.452 1.89M37.613 32.393l-.452 1.89M36.97 32.24l-.452 1.89M36.324 32.086l-.452 1.891M35.679 31.932l-.451 1.89M35.033 31.776l-.451 1.891" stroke="#493B3B" stroke-width=".395" stroke-miterlimit="10" stroke-linecap="round" stroke-linejoin="round"/><path d="M65.139 38.276 42.074 32.77a2.104 2.104 0 0 0-1.803.415 4.575 4.575 0 0 1-3.964.903l-8.452-2.018-4.26 17.847a1.753 1.753 0 0 0 1.313 2.11l34.956 8.346c.952.227 1.9-.348 2.125-1.29l4.463-18.697a1.758 1.758 0 0 0-1.313-2.11Z" fill="#CEC1B4"/><path d="m29.193 35.66-2.077-.496-3.45 14.454 2.076.496 3.451-14.454ZM65.51 44.33l-2.077-.495-3.45 14.455 2.077.496 3.45-14.455Z" fill="#9C8E81"/><path d="m35.206 51.131 3.978-.712-.647-3.44-3.979.711a1.744 1.744 0 0 0-1.415 2.028 1.781 1.781 0 0 0 2.063 1.413Z" fill="#BAC99A"/><path d="m35.206 51.131 3.978-.712-.647-3.44-3.979.711a1.744 1.744 0 0 0-1.415 2.028 1.781 1.781 0 0 0 2.063 1.413Z" stroke="#493B3B" stroke-width=".593" stroke-miterlimit="10" stroke-linecap="round" stroke-linejoin="round"/><path d="M34.64 50.426c.569.136 1.14-.21 1.274-.773a1.055 1.055 0 0 0-.788-1.266c-.57-.136-1.14.21-1.275.773-.134.564.218 1.13.788 1.267Z" fill="#EFE6E6"/><path d="M34.64 50.426c.569.136 1.14-.21 1.274-.773a1.055 1.055 0 0 0-.788-1.266c-.57-.136-1.14.21-1.275.773-.134.564.218 1.13.788 1.267Z" stroke="#493B3B" stroke-width=".395" stroke-miterlimit="10" stroke-linecap="round" stroke-linejoin="round"/><path d="m23.665 49.618-.07.29a1.753 1.753 0 0 0 1.314 2.11l34.956 8.346c.953.228 1.9-.347 2.125-1.29l.07-.29-38.395-9.166Z" fill="#BAC99A"/><path opacity=".2" d="M46.263 39.953c-4.491-1.072-8.992 1.671-10.054 6.119a8.156 8.156 0 0 0-.224 1.698l-1.51.268a1.744 1.744 0 0 0-1.415 2.028 1.78 1.78 0 0 0 2.055 1.411l1.52-.273a8.356 8.356 0 0 0 5.773 4.867c4.491 1.072 8.992-1.671 10.054-6.119 1.07-4.446-1.707-8.926-6.199-9.999Z" fill="#2D2D2D" stroke="#2D2D2D" stroke-width=".79" stroke-miterlimit="10" stroke-linecap="round" stroke-linejoin="round"/><path d="m59.863 60.371-.358-.085.475-1.99 2.078.496-.07.29c-.223.935-1.18 1.515-2.125 1.29ZM24.907 52.026l.358.085.475-1.99-2.077-.495-.07.29a1.758 1.758 0 0 0 1.314 2.11Z" fill="#DBC8C8"/><path d="M65.144 38.254 42.08 32.748a2.08 2.08 0 0 0-1.805.422 4.56 4.56 0 0 1-3.965.91l-8.452-2.018-.74 3.102L65.51 44.33l.945-3.958a1.764 1.764 0 0 0-1.312-2.118Z" fill="#BAC99A"/><path d="m29.917 32.63-2.078-.496-.723 3.031 2.077.496.724-3.03Z" fill="#DBC8C8"/><path d="m53.685 40.325-23.997-5.73a.244.244 0 0 1-.18-.29.244.244 0 0 1 .292-.177l23.996 5.73c.13.03.211.162.18.29a.244.244 0 0 1-.291.176Z" fill="#C1A7A7"/><path d="m65.135 38.253-.358-.086-1.353 5.666 2.078.496.946-3.966a1.758 1.758 0 0 0-1.313-2.11Z" fill="#DBC8C8"/><path d="M42.701 54.875c4.49 1.072 8.992-1.667 10.054-6.118 1.063-4.451-1.716-8.929-6.206-10-4.49-1.073-8.991 1.667-10.054 6.118-1.063 4.451 1.716 8.928 6.206 10Z" fill="#BAC99A"/><path d="M43.086 53.259c3.6.86 7.207-1.33 8.057-4.889.85-3.56-1.38-7.141-4.98-8-3.6-.86-7.207 1.328-8.057 4.888-.85 3.56 1.38 7.141 4.98 8Z" fill="#845B5B"/><path d="M45.825 41.786c3.352.8 5.524 3.976 5.106 7.282.085-.227.155-.457.212-.698.849-3.555-1.384-7.142-4.98-8-3.596-.86-7.208 1.333-8.057 4.888-.057.24-.099.478-.126.718 1.12-3.138 4.493-4.99 7.845-4.19Z" fill="#704848"/><path d="M65.139 38.276 42.074 32.77a2.104 2.104 0 0 0-1.803.415 4.575 4.575 0 0 1-3.964.903l-8.452-2.018-4.26 17.847a1.753 1.753 0 0 0 1.313 2.11l34.956 8.346c.952.227 1.9-.348 2.125-1.29l4.463-18.697a1.758 1.758 0 0 0-1.313-2.11Z" stroke="#493B3B" stroke-width=".593" stroke-miterlimit="10" stroke-linecap="round" stroke-linejoin="round"/><path d="M42.892 54.075c4.055.969 8.118-1.497 9.075-5.506.957-4.009-1.554-8.044-5.609-9.012s-8.118 1.497-9.075 5.506c-.957 4.01 1.554 8.044 5.609 9.012Z" stroke="#493B3B" stroke-width=".296" stroke-miterlimit="10" stroke-linecap="round" stroke-linejoin="round"/><path d="M43.086 53.259c3.6.86 7.207-1.33 8.057-4.889.85-3.56-1.38-7.141-4.98-8-3.6-.86-7.207 1.328-8.057 4.888-.85 3.56 1.38 7.141 4.98 8Z" stroke="#493B3B" stroke-width=".79" stroke-miterlimit="10" stroke-linecap="round" stroke-linejoin="round"/><path d="M43.577 51.206c2.453.586 4.91-.905 5.49-3.33.578-2.425-.94-4.866-3.393-5.451-2.453-.586-4.91.905-5.49 3.33-.579 2.425.94 4.866 3.393 5.451Z" fill="#B57F7F"/><path opacity=".34" d="M47.684 47.546c2.149.513 2.739 3.274.975 4.575a6.727 6.727 0 0 1-5.573 1.14 6.703 6.703 0 0 1-4.456-3.535c-.985-1.964.795-4.152 2.936-3.64l6.118 1.46Z" fill="#fff"/><path d="M45.335 43.841c2.207.527 3.658 2.565 3.505 4.73a4.77 4.77 0 0 0 .226-.695c.579-2.422-.943-4.867-3.392-5.451-2.45-.585-4.912.908-5.49 3.33-.057.241-.092.48-.112.722.843-2.007 3.057-3.163 5.263-2.636Z" fill="#AD6D6D"/><path d="M43.577 51.206c2.453.586 4.91-.905 5.49-3.33.578-2.425-.94-4.866-3.393-5.451-2.453-.586-4.91.905-5.49 3.33-.579 2.425.94 4.866 3.393 5.451Z" stroke="#493B3B" stroke-width=".593" stroke-miterlimit="10" stroke-linecap="round" stroke-linejoin="round"/><path d="M44 49.436c1.463.349 2.93-.54 3.275-1.988.346-1.447-.56-2.904-2.024-3.253-1.464-.35-2.93.54-3.276 1.987-.346 1.448.56 2.904 2.024 3.254Z" fill="#4C3535"/><path d="M44 49.436c1.463.349 2.93-.54 3.275-1.988.346-1.447-.56-2.904-2.024-3.253-1.464-.35-2.93.54-3.276 1.987-.346 1.448.56 2.904 2.024 3.254Z" stroke="#493B3B" stroke-width=".296" stroke-miterlimit="10" stroke-linecap="round" stroke-linejoin="round"/><path d="M44.229 48.48a1.721 1.721 0 0 0 2.08-1.262 1.72 1.72 0 0 0-1.286-2.066 1.72 1.72 0 0 0-2.08 1.262 1.72 1.72 0 0 0 1.286 2.066Z" fill="#3F2E2E"/><path d="m33.257 33.352-3.747-.895.17-.708a.44.44 0 0 1 .53-.322l2.887.689a.44.44 0 0 1 .329.528l-.17.708Z" fill="#6A4949"/><path d="m33.257 33.352-3.747-.895.17-.708a.44.44 0 0 1 .53-.322l2.887.689a.44.44 0 0 1 .329.528l-.17.708Z" stroke="#493B3B" stroke-width=".593" stroke-miterlimit="10" stroke-linecap="round" stroke-linejoin="round"/><path d="m33.148 31.238-2.578-.616-.201.843 2.578.616.201-.843Z" stroke="#493B3B" stroke-width=".593" stroke-miterlimit="10" stroke-linecap="round" stroke-linejoin="round"/><path d="m33.148 31.238-2.578-.616-.201.843 2.578.616.201-.843Z" fill="#493B3B"/><path d="M42.701 54.875c4.49 1.072 8.992-1.667 10.054-6.118 1.063-4.451-1.716-8.929-6.206-10-4.49-1.073-8.991 1.667-10.054 6.118-1.063 4.451 1.716 8.928 6.206 10Z" stroke="#493B3B" stroke-width=".79" stroke-miterlimit="10" stroke-linecap="round" stroke-linejoin="round"/><path opacity=".38" d="M45.023 45.152a1.719 1.719 0 0 0-2.08 1.262l-.004.014c.266-.13.62-.151 1.048-.011.428.14.475.293.928.55.401.224.963.313 1.403.216a1.721 1.721 0 0 0-1.295-2.031Z" fill="#fff"/><path d="M43.34 52.198c3.007.718 6.02-1.11 6.73-4.083.71-2.973-1.153-5.964-4.16-6.682-3.006-.718-6.019 1.11-6.728 4.083-.71 2.972 1.152 5.964 4.158 6.682Z" stroke="#493B3B" stroke-width=".296" stroke-miterlimit="10" stroke-linecap="round" stroke-linejoin="round"/><path d="M43.086 53.259c3.6.86 7.207-1.33 8.057-4.889.85-3.56-1.38-7.141-4.98-8-3.6-.86-7.207 1.328-8.057 4.888-.85 3.56 1.38 7.141 4.98 8Z" stroke="#493B3B" stroke-width=".79" stroke-miterlimit="10" stroke-linecap="round" stroke-linejoin="round"/><path d="m61.742 42.833-6.139-1.465a.866.866 0 0 1-.646-1.038l.578-2.422a.866.866 0 0 1 1.045-.634l6.14 1.466a.866.866 0 0 1 .645 1.037l-.578 2.422a.866.866 0 0 1-1.045.634Z" fill="#443636"/><path d="m61.742 42.833-6.139-1.465a.866.866 0 0 1-.646-1.038l.578-2.422a.866.866 0 0 1 1.045-.634l6.14 1.466a.866.866 0 0 1 .645 1.037l-.578 2.422a.866.866 0 0 1-1.045.634Z" stroke="#493B3B" stroke-width=".395" stroke-miterlimit="10" stroke-linecap="round" stroke-linejoin="round"/><path d="m61.306 42.279-5.065-1.21a.734.734 0 0 1-.547-.879l.436-1.827a.734.734 0 0 1 .886-.537l5.064 1.209c.394.094.64.49.547.88l-.436 1.826a.73.73 0 0 1-.886.538Z" fill="#845B5B"/><path opacity=".38" d="m60.066 41.983 2.577-2.17a.736.736 0 0 0-.563-.778l-.23-.055-3.167 2.673 1.383.33ZM58.16 41.528l3.167-2.672-.422-.101-3.167 2.672.422.101Z" fill="#fff"/></g></svg>