<svg width="36" height="68" fill="none" xmlns="http://www.w3.org/2000/svg"><path d="M22.537 26.179v-5.326a2.737 2.737 0 0 0-2.74-2.74H4.906a2.737 2.737 0 0 1-2.741-2.74 2.737 2.737 0 0 1 2.74-2.741H31.07a2.737 2.737 0 0 0 2.74-2.74 2.737 2.737 0 0 0-2.74-2.741h-5.792a2.737 2.737 0 0 1-2.74-2.74V1.093" stroke="#605635" stroke-width=".548" stroke-miterlimit="10"/><path d="M23.433 27.365h-1.982a.255.255 0 0 1-.256-.256v-.228c0-.146.12-.256.256-.256h1.982c.146 0 .256.119.256.256v.228c.01.137-.11.256-.256.256ZM23.397 26.196h-1.9a.304.304 0 0 1-.302-.302v-.155c0-.165.137-.302.302-.302h1.9c.164 0 .301.137.301.302v.155a.304.304 0 0 1-.301.302Z" fill="#605635"/><path d="M23.348 26.744h-1.81a.203.203 0 0 1-.2-.201v-.265c0-.11.091-.2.2-.2h1.81c.11 0 .21.09.21.2v.265c0 .11-.092.201-.21.201Z" fill="#605635"/><path d="M21.715 25.447V20.12a2.737 2.737 0 0 0-2.74-2.74H4.084a2.737 2.737 0 0 1-2.741-2.74 2.737 2.737 0 0 1 2.74-2.741h26.163a2.737 2.737 0 0 0 2.74-2.74 2.737 2.737 0 0 0-2.74-2.741h-5.792a2.737 2.737 0 0 1-2.74-2.74V.361" stroke="#2F3140" stroke-width=".731" stroke-miterlimit="10" stroke-linecap="round" stroke-linejoin="round"/><path d="M22.7 27.365H20.72a.255.255 0 0 1-.256-.256v-.228c0-.146.119-.256.256-.256H22.7c.146 0 .256.119.256.256v.228c.009.137-.11.256-.256.256ZM22.664 26.196h-1.9a.304.304 0 0 1-.301-.302v-.155c0-.165.137-.302.301-.302h1.9c.165 0 .302.137.302.302v.155a.304.304 0 0 1-.302.302Z" fill="#2F3140"/><path d="M22.621 26.698h-1.809a.203.203 0 0 1-.2-.2v-.175c0-.11.09-.2.2-.2h1.809c.11 0 .201.09.201.2v.174c.01.11-.082.201-.201.201Z" fill="#2F3140"/><path d="M31.56 33.257a3.897 3.897 0 0 0-.54-.877c-.017-.036-.026-.073-.045-.11-.511-1.315-1.991-2.137-1.991-2.137-1.38-.831-2.777-1.334-4.102-1.671a.548.548 0 0 0-.685.53v1.625H20.91v-1.626a.548.548 0 0 0-.686-.53c-1.333.338-2.722.84-4.101 1.672 0 0-1.48.813-1.992 2.138-.466 1.187-1.096 3.197-1.671 5.609l-.85.274a58.053 58.053 0 0 0-1.105 6.257l.795-.247c-.083.63-.147 1.27-.201 1.91l-.777.2c-.21 2.723-.137 5.39.42 7.592l.84.128c.01.027.02.064.028.091 2.896 6.933 4.54 11.035 5.792 11.875 1.233.832 3.727 1.033 5.161.978 1.416.064 3.873-.073 5.125-.886.11-.055.164-.119.265-.183 1.342-.84 2.914-4.147 5.663-10.268l.548-1.224.01-.027c2.064-6.477-1.197-17.731-2.613-21.093Z" fill="#605635" stroke="#605635" stroke-width=".548" stroke-miterlimit="10"/><path d="M11.85 44.237h-1.004l-1.37.356c-.21 2.722-.138 5.39.42 7.591l2.722.411-.768-8.358Z" fill="#7C7C94"/><path d="M11.85 44.237h-1.004l-1.37.356c-.21 2.722-.138 5.39.42 7.591l2.722.411-.768-8.358Z" stroke="#2F3140" stroke-width=".274" stroke-miterlimit="10" stroke-linecap="round" stroke-linejoin="round"/><path d="m10.998 42.32 1.187-6.304-1.416.457a58.068 58.068 0 0 0-1.105 6.257l1.334-.41Z" fill="#7C7C94"/><path d="M12.122 44.237h-1.005l-1.37.356c-.21 2.722-.137 5.39.42 7.591l2.722.411-.767-8.358ZM11.273 42.32l1.188-6.304-1.416.457a58.06 58.06 0 0 0-1.106 6.257l1.334-.41Z" fill="#6C6D81"/><path d="m10.998 42.32 1.187-6.304-1.416.457a58.068 58.068 0 0 0-1.105 6.257l1.334-.41Z" stroke="#2F3140" stroke-width=".274" stroke-miterlimit="10" stroke-linecap="round" stroke-linejoin="round"/><path d="M30.722 31.586c-.575-1.37-2.128-2.21-2.293-2.293a15.924 15.924 0 0 0-1.59-.767v35.891c.11-.055.23-.119.33-.183 1.343-.84 2.85-4.21 5.609-10.322l.548-1.224.009-.028c2.064-6.458-1.197-17.703-2.613-21.074Z" fill="#565864"/><path d="M30.722 31.586c-.575-1.37-2.128-2.21-2.293-2.293a15.924 15.924 0 0 0-1.59-.767v35.891c.11-.055.23-.119.33-.183 1.343-.84 2.85-4.21 5.609-10.322l.548-1.224.009-.028c2.064-6.458-1.197-17.703-2.613-21.074Z" stroke="#2F3140" stroke-width=".274" stroke-miterlimit="10" stroke-linecap="round" stroke-linejoin="round"/><path d="M30.137 30.6c-.511-1.316-1.991-2.138-1.991-2.138-1.38-.831-2.777-1.333-4.102-1.671a.548.548 0 0 0-.685.53v1.635h-3.288V27.33a.548.548 0 0 0-.686-.53c-1.333.338-2.722.84-4.101 1.671 0 0-1.48.814-1.992 2.138-1.434 3.663-4.476 15.255-2.53 21.805 2.896 6.933 4.54 11.035 5.792 11.876 1.233.83 3.727 1.032 5.16.977 1.435.064 3.929-.137 5.162-.977 1.242-.84 2.896-4.943 5.792-11.876 1.945-6.559-1.096-18.151-2.53-21.814Z" fill="#51566A"/><path d="M29.69 36.017c0-2.384-.201-4.686-.585-6.842a5.84 5.84 0 0 0-.96-.713c-1.378-.831-2.776-1.333-4.1-1.671a.548.548 0 0 0-.686.53v1.635h-3.288V27.33a.548.548 0 0 0-.686-.53c-1.333.338-2.722.84-4.101 1.671 0 0-1.48.814-1.992 2.138-1.434 3.663-4.476 15.255-2.53 21.805.85 2.046 1.599 3.837 2.256 5.371 1.224.695 2.522 1.07 3.874 1.07 7.07-.01 12.798-10.232 12.798-22.838Z" fill="#6C6D81"/><path d="M30.137 30.6c-.511-1.316-1.991-2.138-1.991-2.138-1.38-.831-2.777-1.333-4.102-1.671a.548.548 0 0 0-.685.53v1.635h-3.288V27.33a.548.548 0 0 0-.686-.53c-1.333.338-2.722.84-4.101 1.671 0 0-1.48.814-1.992 2.138-1.434 3.663-4.476 15.255-2.53 21.805 2.896 6.933 4.54 11.035 5.792 11.876 1.233.83 3.727 1.032 5.16.977 1.435.064 3.929-.137 5.162-.977 1.242-.84 2.896-4.943 5.792-11.876 1.945-6.559-1.096-18.151-2.53-21.814Z" stroke="#2F3140" stroke-width=".548" stroke-miterlimit="10" stroke-linecap="round" stroke-linejoin="round"/><path d="M20.07 28.416V27.31a.545.545 0 0 0-.676-.53c-1.342.339-2.74.841-4.129 1.681 0 0-1.498.813-2.01 2.138-.84 2.138-2.22 6.98-2.84 11.94a.542.542 0 0 0 .794.547c1.343-.721 2.777-1.48 3.764-1.945 2.229-1.06 5.27-1.964 6.34-2.266a.537.537 0 0 0 .392-.52v-8.852a.54.54 0 0 0-.538-.54h-.558a.554.554 0 0 1-.539-.547ZM30.135 30.6c-.511-1.316-1.991-2.138-1.991-2.138-1.38-.831-2.777-1.333-4.102-1.671a.548.548 0 0 0-.685.53v1.635h-1.644v9.81s3.955 1.06 6.714 2.376c.987.465 2.42 1.224 3.755 1.945.392.21.85-.11.794-.548-.62-4.96-2-9.802-2.84-11.94Z" stroke="#2F3140" stroke-width=".548" stroke-miterlimit="10" stroke-linecap="round" stroke-linejoin="round"/><path d="M21.713 49.143c-.905 0-1.645-.74-1.645-1.644V28.315c0-.484.393-.886.886-.886h1.526c.484 0 .886.393.886.886V47.5a1.657 1.657 0 0 1-1.653 1.644Z" fill="#7C7C94"/><path d="M23.36 32.545v-4.23a.887.887 0 0 0-.886-.886H20.95a.887.887 0 0 0-.887.886v18.16l3.298-13.93Z" fill="#9093A2"/><path d="M22.436 43.169v-2.585a.723.723 0 0 0-.722-.722.717.717 0 0 0-.722.721v2.586h1.444ZM22.436 43.9v2.586c0 .392-.32.721-.722.721a.717.717 0 0 1-.722-.721V43.9h1.444Z" fill="#3C4155"/><path d="M21.713 49.143c-.905 0-1.645-.74-1.645-1.644V28.324c0-.493.402-.895.896-.895h1.507c.493 0 .895.402.895.895V47.5a1.657 1.657 0 0 1-1.653 1.644Z" stroke="#2F3140" stroke-width=".548" stroke-miterlimit="10" stroke-linecap="round" stroke-linejoin="round"/><path d="M22.007 37.112h-.594a.612.612 0 0 1-.612-.612v-4.065c0-.338.274-.612.612-.612h.594c.338 0 .612.274.612.612V36.5a.606.606 0 0 1-.612.612Z" fill="#3B4254"/><path d="M20.9 36.582h1.626M20.9 36.034h1.626M20.9 35.486h1.626M20.9 34.938h1.626M20.9 34.39h1.626M20.9 33.841h1.626M20.9 33.294h1.626M20.9 32.746h1.626M20.9 32.198h1.626" stroke="#C06D4F" stroke-width=".183" stroke-miterlimit="10" stroke-linecap="round" stroke-linejoin="round"/><path d="M22.005 37.112h-.593a.697.697 0 0 1-.677-.612 23.246 23.246 0 0 1 0-4.065.697.697 0 0 1 .677-.612h.593c.338 0 .64.274.676.612a23.246 23.246 0 0 1 0 4.065.69.69 0 0 1-.676.612Z" stroke="#2F3140" stroke-width=".274" stroke-miterlimit="10" stroke-linecap="round" stroke-linejoin="round"/><path d="M22.171 37.113h-.913a.452.452 0 0 1-.457-.456v-4.385c0-.256.2-.457.457-.457h.913c.256 0 .457.2.457.457v4.385c0 .255-.21.456-.457.456ZM22.436 43.169v-2.585a.723.723 0 0 0-.722-.722.717.717 0 0 0-.722.721v2.586h1.444ZM22.436 43.9v2.586c0 .392-.32.721-.722.721a.717.717 0 0 1-.722-.721V43.9h1.444Z" stroke="#2F3140" stroke-width=".274" stroke-miterlimit="10" stroke-linecap="round" stroke-linejoin="round"/></svg>