<svg width="32" height="61" fill="none" xmlns="http://www.w3.org/2000/svg"><path d="M19.966 23.947v-4.734a2.433 2.433 0 0 0-2.436-2.436H4.296a2.433 2.433 0 0 1-2.436-2.436 2.433 2.433 0 0 1 2.436-2.435H27.55a2.433 2.433 0 0 0 2.436-2.436 2.433 2.433 0 0 0-2.436-2.436h-5.148a2.433 2.433 0 0 1-2.436-2.436V1.65" stroke="#605635" stroke-width=".487" stroke-miterlimit="10"/><path d="M20.762 25.001H19a.227.227 0 0 1-.227-.227v-.203c0-.13.105-.227.227-.227h1.762c.13 0 .227.105.227.227v.203c.009.122-.097.227-.227.227ZM20.73 23.962h-1.69a.27.27 0 0 1-.267-.268v-.138a.27.27 0 0 1 .268-.268h1.689a.27.27 0 0 1 .268.268v.138a.27.27 0 0 1-.268.268Z" fill="#605635"/><path d="M20.689 24.45H19.08a.18.18 0 0 1-.178-.18v-.235a.18.18 0 0 1 .178-.179h1.608c.097 0 .187.082.187.18v.234a.182.182 0 0 1-.187.18Z" fill="#605635"/><path d="M19.236 23.297v-4.734a2.433 2.433 0 0 0-2.436-2.436H3.565a2.433 2.433 0 0 1-2.436-2.436 2.433 2.433 0 0 1 2.436-2.436h23.254a2.433 2.433 0 0 0 2.436-2.436 2.433 2.433 0 0 0-2.436-2.436h-5.147a2.433 2.433 0 0 1-2.436-2.436V1" stroke="#2F3140" stroke-width=".65" stroke-miterlimit="10" stroke-linecap="round" stroke-linejoin="round"/><path d="M20.113 25.001H18.35a.227.227 0 0 1-.227-.227v-.203c0-.13.105-.227.227-.227h1.762c.13 0 .227.105.227.227v.203c.008.122-.097.227-.227.227ZM20.08 23.962h-1.688a.27.27 0 0 1-.268-.268v-.138a.27.27 0 0 1 .268-.268h1.688a.27.27 0 0 1 .268.268v.138a.27.27 0 0 1-.268.268Z" fill="#2F3140"/><path d="M20.04 24.409h-1.608a.18.18 0 0 1-.179-.18v-.153a.18.18 0 0 1 .179-.179h1.608a.18.18 0 0 1 .178.179v.154c.008.097-.073.178-.178.178Z" fill="#2F3140"/><path d="M27.989 30.239a3.465 3.465 0 0 0-.48-.78c-.015-.032-.024-.064-.04-.097-.454-1.17-1.77-1.9-1.77-1.9-1.226-.739-2.468-1.186-3.646-1.486a.487.487 0 0 0-.608.471v1.445H18.52v-1.445c0-.317-.3-.552-.608-.47-1.186.3-2.42.746-3.646 1.485 0 0-1.316.723-1.77 1.9-.414 1.056-.975 2.842-1.486 4.985l-.755.244a51.607 51.607 0 0 0-.983 5.562l.707-.22c-.073.561-.13 1.13-.179 1.698l-.69.178c-.187 2.42-.122 4.791.373 6.748l.747.113.025.082c2.574 6.162 4.035 9.808 5.147 10.555 1.097.74 3.313.918 4.588.869 1.259.057 3.443-.065 4.555-.788.098-.048.146-.105.236-.162 1.193-.747 2.59-3.686 5.034-9.126l.487-1.089.008-.024c1.835-5.757-1.064-15.76-2.322-18.748Z" fill="#605635" stroke="#605635" stroke-width=".487" stroke-miterlimit="10"/><path d="M10.466 39.998h-.893l-1.218.317c-.187 2.42-.122 4.79.374 6.747l2.42.366-.683-7.43Z" fill="#7C7C94"/><path d="M10.466 39.998h-.893l-1.218.317c-.187 2.42-.122 4.79.374 6.747l2.42.366-.683-7.43Z" stroke="#2F3140" stroke-width=".244" stroke-miterlimit="10" stroke-linecap="round" stroke-linejoin="round"/><path d="m9.712 38.294 1.055-5.603-1.258.406a51.613 51.613 0 0 0-.983 5.562l1.186-.365Z" fill="#7C7C94"/><path d="M10.71 39.998h-.893l-1.218.317c-.187 2.42-.122 4.79.373 6.747l2.42.366-.682-7.43ZM9.955 38.294l1.055-5.603-1.258.406a51.613 51.613 0 0 0-.983 5.562l1.186-.365Z" fill="#6C6D81"/><path d="m9.712 38.294 1.055-5.603-1.258.406a51.613 51.613 0 0 0-.983 5.562l1.186-.365Z" stroke="#2F3140" stroke-width=".244" stroke-miterlimit="10" stroke-linecap="round" stroke-linejoin="round"/><path d="M27.242 28.753c-.512-1.218-1.892-1.965-2.038-2.038-.455-.252-.926-.479-1.413-.682v31.902c.097-.049.203-.105.292-.162 1.194-.747 2.534-3.743 4.986-9.175l.487-1.088.008-.025c1.835-5.74-1.064-15.736-2.322-18.732Z" fill="#565864"/><path d="M27.242 28.753c-.512-1.218-1.892-1.965-2.038-2.038-.455-.252-.926-.479-1.413-.682v31.902c.097-.049.203-.105.292-.162 1.194-.747 2.534-3.743 4.986-9.175l.487-1.088.008-.025c1.835-5.74-1.064-15.736-2.322-18.732Z" stroke="#2F3140" stroke-width=".244" stroke-miterlimit="10" stroke-linecap="round" stroke-linejoin="round"/><path d="M26.722 27.877c-.455-1.17-1.77-1.9-1.77-1.9-1.226-.74-2.469-1.186-3.646-1.486a.487.487 0 0 0-.609.47v1.454h-2.923V24.97c0-.317-.3-.552-.609-.471-1.185.3-2.42.747-3.646 1.486 0 0-1.315.722-1.77 1.9-1.274 3.256-3.978 13.56-2.249 19.381 2.574 6.163 4.036 9.809 5.148 10.556 1.096.739 3.313.917 4.588.869 1.274.056 3.491-.122 4.587-.87 1.104-.746 2.574-4.392 5.148-10.555 1.73-5.83-.974-16.133-2.25-19.39Z" fill="#51566A"/><path d="M26.324 32.692c0-2.12-.179-4.166-.52-6.082-.446-.406-.852-.633-.852-.633-1.226-.74-2.469-1.186-3.646-1.486a.487.487 0 0 0-.609.47v1.454h-2.923V24.97c0-.317-.3-.552-.609-.471-1.185.3-2.42.747-3.646 1.486 0 0-1.315.722-1.77 1.9-1.274 3.256-3.978 13.56-2.249 19.381.755 1.82 1.421 3.41 2.006 4.775 1.088.617 2.24.95 3.442.95 6.285-.008 11.376-9.094 11.376-20.3Z" fill="#6C6D81"/><path d="M26.722 27.877c-.455-1.17-1.77-1.9-1.77-1.9-1.226-.74-2.469-1.186-3.646-1.486a.487.487 0 0 0-.609.47v1.454h-2.923V24.97c0-.317-.3-.552-.609-.471-1.185.3-2.42.747-3.646 1.486 0 0-1.315.722-1.77 1.9-1.274 3.256-3.978 13.56-2.249 19.381 2.574 6.163 4.036 9.809 5.148 10.556 1.096.739 3.313.917 4.588.869 1.274.056 3.491-.122 4.587-.87 1.104-.746 2.574-4.392 5.148-10.555 1.73-5.83-.974-16.133-2.25-19.39Z" stroke="#2F3140" stroke-width=".487" stroke-miterlimit="10" stroke-linecap="round" stroke-linejoin="round"/><path d="M17.774 25.935v-.982a.484.484 0 0 0-.6-.471c-1.194.3-2.436.747-3.67 1.494 0 0-1.332.723-1.787 1.9-.747 1.9-1.973 6.203-2.525 10.612a.482.482 0 0 0 .706.488c1.194-.642 2.469-1.316 3.346-1.73 1.98-.942 4.685-1.746 5.635-2.014a.477.477 0 0 0 .349-.462v-7.868a.48.48 0 0 0-.48-.48h-.495a.492.492 0 0 1-.479-.487ZM26.722 27.877c-.455-1.17-1.77-1.9-1.77-1.9-1.227-.74-2.469-1.186-3.646-1.486a.487.487 0 0 0-.61.47v1.454h-1.46v8.72s3.515.943 5.967 2.112c.877.414 2.152 1.088 3.337 1.73a.482.482 0 0 0 .707-.488c-.552-4.409-1.778-8.712-2.525-10.612Z" stroke="#2F3140" stroke-width=".487" stroke-miterlimit="10" stroke-linecap="round" stroke-linejoin="round"/><path d="M19.236 44.359a1.466 1.466 0 0 1-1.462-1.462v-17.05c0-.431.35-.788.788-.788h1.356c.43 0 .788.349.788.787v17.051a1.473 1.473 0 0 1-1.47 1.462Z" fill="#7C7C94"/><path d="M20.697 29.606v-3.76c0-.43-.349-.787-.787-.787h-1.356c-.43 0-.788.349-.788.787v16.142l2.931-12.382Z" fill="#9093A2"/><path d="M19.877 39.049V36.75a.643.643 0 0 0-.641-.642.638.638 0 0 0-.642.642v2.298h1.283ZM19.877 39.699v2.298c0 .349-.284.641-.641.641a.638.638 0 0 1-.642-.641v-2.298h1.283Z" fill="#3C4155"/><path d="M19.236 44.359a1.466 1.466 0 0 1-1.462-1.462V25.854c0-.438.358-.795.796-.795h1.34c.438 0 .796.357.796.795v17.043a1.473 1.473 0 0 1-1.47 1.462Z" stroke="#2F3140" stroke-width=".487" stroke-miterlimit="10" stroke-linecap="round" stroke-linejoin="round"/><path d="M19.495 33.665h-.527a.544.544 0 0 1-.544-.544v-3.613c0-.3.243-.544.544-.544h.527c.3 0 .544.244.544.544v3.613a.539.539 0 0 1-.544.544Z" fill="#3B4254"/><path d="M18.513 33.194h1.445M18.513 32.707h1.445M18.513 32.22h1.445M18.513 31.733h1.445M18.513 31.246h1.445M18.513 30.758h1.445M18.513 30.271h1.445M18.513 29.784h1.445M18.513 29.297h1.445" stroke="#C06D4F" stroke-width=".162" stroke-miterlimit="10" stroke-linecap="round" stroke-linejoin="round"/><path d="M19.495 33.665h-.527a.62.62 0 0 1-.601-.544 20.664 20.664 0 0 1 0-3.613.62.62 0 0 1 .6-.544h.528c.3 0 .569.244.601.544a20.644 20.644 0 0 1 0 3.613c-.024.3-.3.544-.6.544Z" stroke="#2F3140" stroke-width=".244" stroke-miterlimit="10" stroke-linecap="round" stroke-linejoin="round"/><path d="M19.642 33.666h-.812a.402.402 0 0 1-.406-.406v-3.897c0-.228.178-.407.406-.407h.812c.227 0 .406.18.406.407v3.897a.407.407 0 0 1-.406.406ZM19.877 39.049V36.75a.643.643 0 0 0-.641-.642.638.638 0 0 0-.642.642v2.298h1.283ZM19.877 39.699v2.298c0 .349-.284.641-.641.641a.638.638 0 0 1-.642-.641v-2.298h1.283Z" stroke="#2F3140" stroke-width=".244" stroke-miterlimit="10" stroke-linecap="round" stroke-linejoin="round"/></svg>