<svg width="18" height="20" fill="none" xmlns="http://www.w3.org/2000/svg"><path d="m16.558 4.443-8.87 2.882a.726.726 0 0 1-.347.113l-3.044.99h12.67c.399 0 .722.323.722.722v7.234A3.617 3.617 0 0 1 14.073 20H3.947A3.617 3.617 0 0 1 .33 16.384V9.15a.72.72 0 0 1 .131-.415l-.283-.87A3.616 3.616 0 0 1 2.5 3.306L12.13.178c1.9-.617 3.94.422 4.557 2.322l.336 1.032a.723.723 0 0 1-.465.911Zm-5.416.239 1.86-3.22a2.18 2.18 0 0 0-.425.092l-1.8.585-1.892 3.277 2.257-.734Zm3.32-2.863a.743.743 0 0 1-.027.054l-1.237 2.14 2.225-.722-.111-.344a2.16 2.16 0 0 0-.85-1.128Zm-5.742.988-2.258.734-1.891 3.276 2.257-.733L8.72 2.807ZM1.666 7.761l.849-.276L4.406 4.21l-1.46.474a2.17 2.17 0 0 0-1.392 2.734l.112.344Zm.11 2.113v6.51a2.17 2.17 0 0 0 2.17 2.17h10.127a2.17 2.17 0 0 0 2.17-2.17v-6.51H1.777Z" fill="#fff"/></svg>