<svg width="30" height="30" fill="none" xmlns="http://www.w3.org/2000/svg"><mask id="path-1-inside-1_118_117" fill="#fff"><path d="m26.05 2.725-4.912.975 3.425 4.425 2.462-.5-.975-4.9m-8.587 1.7L15 4.913l3.438 4.412 2.45-.487-3.425-4.413m-6.125 1.2-2.463.513 3.438 4.412 2.45-.487-3.425-4.438ZM5.2 6.875l-1.225.238a2.494 2.494 0 0 0-1.962 2.937L2.5 12.5l6.125-1.212L5.2 6.875ZM25 15v10H5V15h20Zm2.5-2.5h-25V25A2.5 2.5 0 0 0 5 27.5h20c1.388 0 2.5-1.112 2.5-2.5V12.5Z"/></mask><path d="m26.05 2.725-4.912.975 3.425 4.425 2.462-.5-.975-4.9m-8.587 1.7L15 4.913l3.438 4.412 2.45-.487-3.425-4.413m-6.125 1.2-2.463.513 3.438 4.412 2.45-.487-3.425-4.438ZM5.2 6.875l-1.225.238a2.494 2.494 0 0 0-1.962 2.937L2.5 12.5l6.125-1.212L5.2 6.875ZM25 15v10H5V15h20Zm2.5-2.5h-25V25A2.5 2.5 0 0 0 5 27.5h20c1.388 0 2.5-1.112 2.5-2.5V12.5Z" fill="#686868"/><path d="m21.138 3.7-.098-.49-.792.157.494.64.396-.307Zm3.425 4.425-.396.306.19.246.305-.062-.1-.49Zm2.462-.5.1.49.488-.099-.098-.488-.49.097ZM15 4.913l-.097-.49-.796.157.499.64.394-.307Zm3.438 4.412-.395.307.19.244.302-.06-.097-.49Zm2.45-.487.097.49.794-.158-.496-.639-.395.307Zm-9.55-3.213.396-.305-.192-.248-.306.064.102.49Zm-2.463.513-.102-.49-.786.164.494.633.394-.307Zm3.438 4.412-.395.307.19.244.302-.06-.097-.49Zm2.45-.487.097.49.791-.157-.492-.639-.396.306ZM5.2 6.875l.395-.306-.188-.243-.302.058.095.491Zm-1.225.238-.095-.491h-.002l.097.49ZM2.013 10.05l.49-.097v-.001l-.49.098ZM2.5 12.5l-.49.098.097.49.49-.097-.097-.49Zm6.125-1.212.097.49.795-.157-.497-.64-.395.307ZM25 15h.5v-.5H25v.5Zm0 10v.5h.5V25H25ZM5 25h-.5v.5H5V25Zm0-10v-.5h-.5v.5H5Zm22.5-2.5h.5V12h-.5v.5Zm-25 0V12H2v.5h.5Zm0 12.5H2h.5ZM25.953 2.235l-4.913.975.195.98 4.913-.974-.195-.981Zm-5.21 1.771 3.424 4.425.791-.612-3.425-4.425-.79.612Zm3.92 4.61 2.462-.5-.2-.98-2.462.5.2.98Zm2.852-1.088-.974-4.9-.981.195.975 4.9.98-.195Zm-10.15-3.593-2.462.487.194.981 2.463-.487-.194-.981Zm-2.76 1.285 3.438 4.412.79-.614-3.438-4.413-.79.615Zm3.93 4.595 2.45-.487-.195-.98-2.45.487.195.98Zm2.748-1.284-3.425-4.412-.79.613 3.425 4.412.79-.613ZM11.236 5.136l-2.463.512.204.98 2.463-.513-.204-.98ZM8.48 6.445l3.437 4.412.79-.614L9.27 5.83l-.79.615Zm3.93 4.595 2.45-.487-.196-.98-2.45.487.195.98Zm2.748-1.283L11.732 5.32l-.791.61 3.425 4.438.791-.61ZM5.104 6.384l-1.225.238.19.981 1.225-.237-.19-.982Zm-1.227.238a2.994 2.994 0 0 0-1.082.447l.555.832c.219-.146.463-.247.72-.298l-.193-.981Zm-1.082.447c-.327.218-.609.5-.828.827l.832.556c.146-.219.333-.406.551-.551l-.555-.832Zm-.828.827c-.219.328-.37.695-.447 1.082l.98.194c.052-.257.153-.502.299-.72l-.832-.556Zm-.447 1.082c-.077.386-.076.784.001 1.17l.98-.196a1.994 1.994 0 0 1 0-.78l-.981-.194Zm.001 1.17.488 2.45.98-.196-.487-2.45-.98.196Zm1.075 2.843 6.125-1.213-.194-.98-6.125 1.212.194.98Zm6.423-2.01L5.595 6.569l-.79.613 3.425 4.412.79-.613Zm15.48 4.02v10h1V15h-1Zm.5 9.5H5v1h20v-1ZM5.5 25V15h-1v10h1ZM5 15.5h20v-1H5v1ZM27.5 12h-25v1h25v-1ZM2 12.5V25h1V12.5H2ZM2 25a3 3 0 0 0 .879 2.12l.707-.707A2 2 0 0 1 3 25H2Zm.879 2.12a3 3 0 0 0 2.121.88v-1a2 2 0 0 1-1.414-.587l-.707.707Zm2.121.88h20v-1H5v1Zm20 0c1.664 0 3-1.337 3-3h-1c0 1.11-.889 2-2 2v1Zm3-3V12.5h-1V25h1Z" fill="#101010" mask="url('#path-1-inside-1_118_117')"/></svg>